<svg width="30" height="30" viewBox="0 0 30 30" fill="none" xmlns="http://www.w3.org/2000/svg">
<path d="M7.125 6C6.03098 6 4.98177 6.4346 4.20818 7.20818C3.4346 7.98177 3 9.03098 3 10.125V12H27V10.125C27 9.03098 26.5654 7.98177 25.7918 7.20818C25.0182 6.4346 23.969 6 22.875 6H7.125ZM27 13.5H3V19.875C3 20.969 3.4346 22.0182 4.20818 22.7918C4.98177 23.5654 6.03098 24 7.125 24H22.875C23.969 24 25.0182 23.5654 25.7918 22.7918C26.5654 22.0182 27 20.969 27 19.875V13.5ZM20.25 19.5H23.25C23.4489 19.5 23.6397 19.579 23.7803 19.7197C23.921 19.8603 24 20.0511 24 20.25C24 20.4489 23.921 20.6397 23.7803 20.7803C23.6397 20.921 23.4489 21 23.25 21H20.25C20.0511 21 19.8603 20.921 19.7197 20.7803C19.579 20.6397 19.5 20.4489 19.5 20.25C19.5 20.0511 19.579 19.8603 19.7197 19.7197C19.8603 19.579 20.0511 19.5 20.25 19.5Z" fill="black"/>
</svg>
