<svg width="29" height="28" viewBox="0 0 29 28" fill="none" xmlns="http://www.w3.org/2000/svg">
<path d="M25.3216 0.858398H29V3.84517H26.5732L18.4989 11.7452L16.3468 9.66939L25.3216 0.858398ZM13.7368 9.81873C14.1337 9.81873 14.5 9.96807 14.8205 10.2667L17.8732 13.2535C18.1479 13.5522 18.3158 13.8957 18.3158 14.2989L18.1632 14.8962L12.0579 26.8433C11.7679 27.366 11.2337 27.6348 10.6842 27.6348C10.15 27.6348 9.60053 27.366 9.32579 26.8433L6.48684 21.3178L0.839474 18.6297C0.274737 18.331 0 17.8084 0 17.2857C0 16.763 0.274737 16.2403 0.839474 15.9416L13.05 9.96807C13.2637 9.81873 13.4926 9.81873 13.7368 9.81873ZM9.69211 14.0301L8.62368 15.0456L12.9737 19.3017L14.0116 18.2564L9.69211 14.0301ZM7.54 16.1358L6.45632 17.1961L10.7758 21.4224L11.8595 20.362L7.54 16.1358Z" fill="black"/>
</svg>
