<svg width="27" height="27" viewBox="0 0 27 27" fill="none" xmlns="http://www.w3.org/2000/svg">
<path d="M17.0021 3.61128L17.1079 3.70466L23.2954 9.89216C23.485 10.0828 23.6001 10.3351 23.6198 10.6033C23.6394 10.8715 23.5623 11.1379 23.4025 11.3541C23.2427 11.5704 23.0107 11.7223 22.7485 11.7822C22.4864 11.8422 22.2114 11.8062 21.9735 11.6809L18.405 15.2483L16.803 19.5199C16.7608 19.6326 16.7008 19.7378 16.6252 19.8315L16.5465 19.9215L14.859 21.609C14.6651 21.8026 14.4073 21.9187 14.1339 21.9357C13.8605 21.9527 13.5903 21.8693 13.374 21.7013L13.2671 21.6079L10.125 18.4669L5.85787 22.7329C5.65542 22.9347 5.38376 23.0518 5.09807 23.0605C4.81237 23.0693 4.53407 22.9689 4.31969 22.7799C4.1053 22.5908 3.97091 22.3273 3.9438 22.0427C3.9167 21.7582 3.99891 21.474 4.17375 21.2479L4.26712 21.1422L8.53312 16.875L5.39213 13.7329C5.19843 13.5392 5.08207 13.2815 5.06487 13.008C5.04768 12.7346 5.13084 12.4644 5.29875 12.2479L5.39213 12.1422L7.07962 10.4547C7.16451 10.3695 7.2625 10.2984 7.36987 10.2443L7.48012 10.197L11.7506 8.59391L15.318 5.02766C15.1964 4.80022 15.1566 4.53789 15.2053 4.2846C15.254 4.03131 15.3882 3.80246 15.5856 3.63637C15.7829 3.47027 16.0313 3.37703 16.2892 3.37226C16.5471 3.36749 16.7988 3.4526 17.0021 3.61128Z" fill="black"/>
</svg>
