<svg width="29" height="16" viewBox="0 0 29 16" fill="none" xmlns="http://www.w3.org/2000/svg">
<path d="M2.44508 0.688631C2.30672 0.560934 2.14398 0.461104 1.96612 0.39484C1.78827 0.328576 1.5988 0.297176 1.40852 0.302433C1.21825 0.307691 1.03089 0.349502 0.85716 0.425481C0.683427 0.501459 0.526718 0.610116 0.395978 0.745248C0.265239 0.88038 0.16303 1.03934 0.0951871 1.21305C0.0273444 1.38677 -0.00480358 1.57183 0.000579072 1.75768C0.00596172 1.94353 0.0487694 2.12652 0.126558 2.29621C0.204346 2.4659 0.315592 2.61896 0.453944 2.74666L13.4963 14.7778C13.7654 15.0262 14.1216 15.1647 14.4919 15.1647C14.8621 15.1647 15.2184 15.0262 15.4874 14.7778L28.5312 2.74666C28.6726 2.6198 28.7868 2.46678 28.8671 2.29646C28.9474 2.12615 28.9923 1.94195 28.9991 1.75455C29.0059 1.56716 28.9745 1.38031 28.9068 1.20485C28.839 1.0294 28.7363 0.868847 28.6045 0.732512C28.4727 0.596178 28.3144 0.486782 28.139 0.41068C27.9635 0.334578 27.7743 0.293286 27.5824 0.289204C27.3905 0.285121 27.1996 0.318328 27.0209 0.386897C26.8422 0.455466 26.6793 0.558029 26.5415 0.68863L14.4919 11.8026L2.44508 0.688631Z" fill="black"/>
</svg>
